<mxfile host="app.diagrams.net" modified="2023-05-12T14:04:26.246Z" agent="Mozilla/5.0 (Windows NT 10.0; Win64; x64) AppleWebKit/537.36 (KHTML, like Gecko) Chrome/113.0.0.0 Safari/537.36" etag="ytyaxqhbVvIIW4xg6Umm" version="21.2.0" type="device">
  <diagram id="ojrMkV5TOpJ_nW8dIUdT" name="Assistant_Bot">
    <mxGraphModel dx="1434" dy="764" grid="1" gridSize="10" guides="1" tooltips="1" connect="1" arrows="1" fold="1" page="1" pageScale="1" pageWidth="1169" pageHeight="827" math="0" shadow="0">
      <root>
        <mxCell id="0" />
        <mxCell id="1" parent="0" />
        <mxCell id="VjtclQOy1LpkrugegPU1-1" value="Interface" style="swimlane;fontStyle=3;align=center;verticalAlign=top;childLayout=stackLayout;horizontal=1;startSize=26;horizontalStack=0;resizeParent=1;resizeParentMax=0;resizeLast=0;collapsible=1;marginBottom=0;fontSize=11;" parent="1" vertex="1">
          <mxGeometry x="985" y="20" width="170" height="100" as="geometry" />
        </mxCell>
        <mxCell id="VjtclQOy1LpkrugegPU1-2" value="+ input_message&#xa;+output_message" style="text;strokeColor=none;fillColor=none;align=left;verticalAlign=top;spacingLeft=4;spacingRight=4;overflow=hidden;rotatable=0;points=[[0,0.5],[1,0.5]];portConstraint=eastwest;fontStyle=2;fontSize=11;" parent="VjtclQOy1LpkrugegPU1-1" vertex="1">
          <mxGeometry y="26" width="170" height="26" as="geometry" />
        </mxCell>
        <mxCell id="VjtclQOy1LpkrugegPU1-3" value="" style="line;strokeWidth=1;fillColor=none;align=left;verticalAlign=middle;spacingTop=-1;spacingLeft=3;spacingRight=3;rotatable=0;labelPosition=right;points=[];portConstraint=eastwest;strokeColor=inherit;fontSize=11;" parent="VjtclQOy1LpkrugegPU1-1" vertex="1">
          <mxGeometry y="52" width="170" height="8" as="geometry" />
        </mxCell>
        <mxCell id="VjtclQOy1LpkrugegPU1-4" value="+ input_user_message(): None&#xa;+print_output_message(): None" style="text;strokeColor=none;fillColor=none;align=left;verticalAlign=top;spacingLeft=4;spacingRight=4;overflow=hidden;rotatable=0;points=[[0,0.5],[1,0.5]];portConstraint=eastwest;fontStyle=2;fontSize=11;" parent="VjtclQOy1LpkrugegPU1-1" vertex="1">
          <mxGeometry y="60" width="170" height="40" as="geometry" />
        </mxCell>
        <mxCell id="hCul0chsBix3moK8bQgn-1" value="CommandLineInterface" style="swimlane;fontStyle=1;align=center;verticalAlign=top;childLayout=stackLayout;horizontal=1;startSize=26;horizontalStack=0;resizeParent=1;resizeParentMax=0;resizeLast=0;collapsible=1;marginBottom=0;fontSize=11;" parent="1" vertex="1">
          <mxGeometry x="980" y="180" width="180" height="80" as="geometry" />
        </mxCell>
        <mxCell id="hCul0chsBix3moK8bQgn-3" value="" style="line;strokeWidth=1;fillColor=none;align=left;verticalAlign=middle;spacingTop=-1;spacingLeft=3;spacingRight=3;rotatable=0;labelPosition=right;points=[];portConstraint=eastwest;strokeColor=inherit;fontSize=11;" parent="hCul0chsBix3moK8bQgn-1" vertex="1">
          <mxGeometry y="26" width="180" height="8" as="geometry" />
        </mxCell>
        <mxCell id="hCul0chsBix3moK8bQgn-4" value="+ input_user_message(): None&#xa;+print_output_message(): None" style="text;strokeColor=none;fillColor=none;align=left;verticalAlign=top;spacingLeft=4;spacingRight=4;overflow=hidden;rotatable=0;points=[[0,0.5],[1,0.5]];portConstraint=eastwest;fontSize=11;" parent="hCul0chsBix3moK8bQgn-1" vertex="1">
          <mxGeometry y="34" width="180" height="46" as="geometry" />
        </mxCell>
        <mxCell id="hCul0chsBix3moK8bQgn-18" value="" style="endArrow=block;endFill=0;endSize=12;html=1;rounded=0;exitX=0.5;exitY=0;exitDx=0;exitDy=0;entryX=0.511;entryY=1.011;entryDx=0;entryDy=0;entryPerimeter=0;fontSize=11;" parent="1" source="hCul0chsBix3moK8bQgn-1" target="VjtclQOy1LpkrugegPU1-4" edge="1">
          <mxGeometry width="160" relative="1" as="geometry">
            <mxPoint x="983" y="160" as="sourcePoint" />
            <mxPoint x="1143" y="160" as="targetPoint" />
          </mxGeometry>
        </mxCell>
        <mxCell id="hCul0chsBix3moK8bQgn-32" value="_Field" style="swimlane;fontStyle=3;align=center;verticalAlign=top;childLayout=stackLayout;horizontal=1;startSize=26;horizontalStack=0;resizeParent=1;resizeParentMax=0;resizeLast=0;collapsible=1;marginBottom=0;fontSize=11;" parent="1" vertex="1">
          <mxGeometry x="280" y="10" width="160" height="80" as="geometry" />
        </mxCell>
        <object label="«get/set» - _value&#xa;+value" is_singlton="bool" id="hCul0chsBix3moK8bQgn-33">
          <mxCell style="text;strokeColor=none;fillColor=none;align=left;verticalAlign=top;spacingLeft=4;spacingRight=4;overflow=hidden;rotatable=0;points=[[0,0.5],[1,0.5]];portConstraint=eastwest;fontSize=11;fontStyle=2" parent="hCul0chsBix3moK8bQgn-32" vertex="1">
            <mxGeometry y="26" width="160" height="44" as="geometry" />
          </mxCell>
        </object>
        <mxCell id="hCul0chsBix3moK8bQgn-34" value="" style="line;strokeWidth=1;fillColor=none;align=left;verticalAlign=middle;spacingTop=-1;spacingLeft=3;spacingRight=3;rotatable=0;labelPosition=right;points=[];portConstraint=eastwest;strokeColor=inherit;fontSize=11;" parent="hCul0chsBix3moK8bQgn-32" vertex="1">
          <mxGeometry y="70" width="160" height="10" as="geometry" />
        </mxCell>
        <mxCell id="hCul0chsBix3moK8bQgn-36" value="_Name" style="swimlane;fontStyle=1;align=center;verticalAlign=top;childLayout=stackLayout;horizontal=1;startSize=26;horizontalStack=0;resizeParent=1;resizeParentMax=0;resizeLast=0;collapsible=1;marginBottom=0;fontSize=11;" parent="1" vertex="1">
          <mxGeometry x="10" y="150" width="160" height="80" as="geometry" />
        </mxCell>
        <object label="«get/set» - _value&#xa;+value" is_singlton="bool" id="hCul0chsBix3moK8bQgn-37">
          <mxCell style="text;strokeColor=none;fillColor=none;align=left;verticalAlign=top;spacingLeft=4;spacingRight=4;overflow=hidden;rotatable=0;points=[[0,0.5],[1,0.5]];portConstraint=eastwest;fontSize=11;" parent="hCul0chsBix3moK8bQgn-36" vertex="1">
            <mxGeometry y="26" width="160" height="34" as="geometry" />
          </mxCell>
        </object>
        <mxCell id="hCul0chsBix3moK8bQgn-38" value="" style="line;strokeWidth=1;fillColor=none;align=left;verticalAlign=middle;spacingTop=-1;spacingLeft=3;spacingRight=3;rotatable=0;labelPosition=right;points=[];portConstraint=eastwest;strokeColor=inherit;fontSize=11;" parent="hCul0chsBix3moK8bQgn-36" vertex="1">
          <mxGeometry y="60" width="160" height="20" as="geometry" />
        </mxCell>
        <mxCell id="hCul0chsBix3moK8bQgn-40" value="_Phone" style="swimlane;fontStyle=1;align=center;verticalAlign=top;childLayout=stackLayout;horizontal=1;startSize=26;horizontalStack=0;resizeParent=1;resizeParentMax=0;resizeLast=0;collapsible=1;marginBottom=0;fontSize=11;" parent="1" vertex="1">
          <mxGeometry x="370" y="152" width="160" height="80" as="geometry" />
        </mxCell>
        <object label="«get/set» - _value&#xa;+value" is_singlton="bool" id="hCul0chsBix3moK8bQgn-41">
          <mxCell style="text;strokeColor=none;fillColor=none;align=left;verticalAlign=top;spacingLeft=4;spacingRight=4;overflow=hidden;rotatable=0;points=[[0,0.5],[1,0.5]];portConstraint=eastwest;fontSize=11;" parent="hCul0chsBix3moK8bQgn-40" vertex="1">
            <mxGeometry y="26" width="160" height="34" as="geometry" />
          </mxCell>
        </object>
        <mxCell id="hCul0chsBix3moK8bQgn-42" value="" style="line;strokeWidth=1;fillColor=none;align=left;verticalAlign=middle;spacingTop=-1;spacingLeft=3;spacingRight=3;rotatable=0;labelPosition=right;points=[];portConstraint=eastwest;strokeColor=inherit;fontSize=11;" parent="hCul0chsBix3moK8bQgn-40" vertex="1">
          <mxGeometry y="60" width="160" height="20" as="geometry" />
        </mxCell>
        <mxCell id="hCul0chsBix3moK8bQgn-43" value="_Birthday" style="swimlane;fontStyle=1;align=center;verticalAlign=top;childLayout=stackLayout;horizontal=1;startSize=26;horizontalStack=0;resizeParent=1;resizeParentMax=0;resizeLast=0;collapsible=1;marginBottom=0;fontSize=11;" parent="1" vertex="1">
          <mxGeometry x="550" y="152" width="160" height="80" as="geometry" />
        </mxCell>
        <object label="«get/set» - _value&#xa;+value" is_singlton="bool" id="hCul0chsBix3moK8bQgn-44">
          <mxCell style="text;strokeColor=none;fillColor=none;align=left;verticalAlign=top;spacingLeft=4;spacingRight=4;overflow=hidden;rotatable=0;points=[[0,0.5],[1,0.5]];portConstraint=eastwest;fontSize=11;" parent="hCul0chsBix3moK8bQgn-43" vertex="1">
            <mxGeometry y="26" width="160" height="34" as="geometry" />
          </mxCell>
        </object>
        <mxCell id="hCul0chsBix3moK8bQgn-45" value="" style="line;strokeWidth=1;fillColor=none;align=left;verticalAlign=middle;spacingTop=-1;spacingLeft=3;spacingRight=3;rotatable=0;labelPosition=right;points=[];portConstraint=eastwest;strokeColor=inherit;fontSize=11;" parent="hCul0chsBix3moK8bQgn-43" vertex="1">
          <mxGeometry y="60" width="160" height="20" as="geometry" />
        </mxCell>
        <mxCell id="hCul0chsBix3moK8bQgn-48" value="" style="endArrow=block;endFill=0;endSize=12;html=1;rounded=0;fontSize=11;entryX=0.75;entryY=1;entryDx=0;entryDy=0;exitX=0.5;exitY=0;exitDx=0;exitDy=0;" parent="1" source="hCul0chsBix3moK8bQgn-40" edge="1" target="hCul0chsBix3moK8bQgn-32">
          <mxGeometry width="160" relative="1" as="geometry">
            <mxPoint x="440" y="150" as="sourcePoint" />
            <mxPoint x="400" y="110" as="targetPoint" />
            <Array as="points" />
          </mxGeometry>
        </mxCell>
        <mxCell id="hCul0chsBix3moK8bQgn-49" value="" style="endArrow=block;endFill=0;endSize=12;html=1;rounded=0;exitX=0;exitY=0;exitDx=0;exitDy=0;entryX=1;entryY=1;entryDx=0;entryDy=0;fontSize=11;" parent="1" source="hCul0chsBix3moK8bQgn-43" target="hCul0chsBix3moK8bQgn-32" edge="1">
          <mxGeometry width="160" relative="1" as="geometry">
            <mxPoint x="471" y="163" as="sourcePoint" />
            <mxPoint x="390" y="140" as="targetPoint" />
          </mxGeometry>
        </mxCell>
        <mxCell id="hCul0chsBix3moK8bQgn-51" value="_Record" style="swimlane;fontStyle=1;align=center;verticalAlign=top;childLayout=stackLayout;horizontal=1;startSize=26;horizontalStack=0;resizeParent=1;resizeParentMax=0;resizeLast=0;collapsible=1;marginBottom=0;fontSize=11;" parent="1" vertex="1">
          <mxGeometry x="10" y="265" width="168" height="230" as="geometry" />
        </mxCell>
        <mxCell id="hCul0chsBix3moK8bQgn-52" value="+name : _Name&#xa;+phones : _Phone&#xa;+birthday :  _Birthday&#xa;+email = _Email" style="text;strokeColor=none;fillColor=none;align=left;verticalAlign=top;spacingLeft=4;spacingRight=4;overflow=hidden;rotatable=0;points=[[0,0.5],[1,0.5]];portConstraint=eastwest;fontSize=11;" parent="hCul0chsBix3moK8bQgn-51" vertex="1">
          <mxGeometry y="26" width="168" height="64" as="geometry" />
        </mxCell>
        <mxCell id="hCul0chsBix3moK8bQgn-53" value="" style="line;strokeWidth=1;fillColor=none;align=left;verticalAlign=middle;spacingTop=-1;spacingLeft=3;spacingRight=3;rotatable=0;labelPosition=right;points=[];portConstraint=eastwest;strokeColor=inherit;fontSize=11;" parent="hCul0chsBix3moK8bQgn-51" vertex="1">
          <mxGeometry y="90" width="168" height="10" as="geometry" />
        </mxCell>
        <mxCell id="hCul0chsBix3moK8bQgn-54" value="+ add_phone(str): None&#xa;+change_phone(str ,str): None&#xa;+del_phone(str): None&#xa;+set_birthday(str): None&#xa;+del_birthday(): None&#xa;+set_email(str): None&#xa;+del_email(): None&#xa;+days_to_birthday(): int|None" style="text;strokeColor=none;fillColor=none;align=left;verticalAlign=top;spacingLeft=4;spacingRight=4;overflow=hidden;rotatable=0;points=[[0,0.5],[1,0.5]];portConstraint=eastwest;fontSize=11;" parent="hCul0chsBix3moK8bQgn-51" vertex="1">
          <mxGeometry y="100" width="168" height="130" as="geometry" />
        </mxCell>
        <mxCell id="hCul0chsBix3moK8bQgn-61" value="AddressBook" style="swimlane;fontStyle=1;align=center;verticalAlign=top;childLayout=stackLayout;horizontal=1;startSize=26;horizontalStack=0;resizeParent=1;resizeParentMax=0;resizeLast=0;collapsible=1;marginBottom=0;fontSize=11;" parent="1" vertex="1">
          <mxGeometry x="265" y="290" width="190" height="180" as="geometry" />
        </mxCell>
        <mxCell id="hCul0chsBix3moK8bQgn-62" value="+ data : dict" style="text;strokeColor=none;fillColor=none;align=left;verticalAlign=top;spacingLeft=4;spacingRight=4;overflow=hidden;rotatable=0;points=[[0,0.5],[1,0.5]];portConstraint=eastwest;fontSize=11;" parent="hCul0chsBix3moK8bQgn-61" vertex="1">
          <mxGeometry y="26" width="190" height="44" as="geometry" />
        </mxCell>
        <mxCell id="hCul0chsBix3moK8bQgn-63" value="" style="line;strokeWidth=1;fillColor=none;align=left;verticalAlign=middle;spacingTop=-1;spacingLeft=3;spacingRight=3;rotatable=0;labelPosition=right;points=[];portConstraint=eastwest;strokeColor=inherit;fontSize=11;" parent="hCul0chsBix3moK8bQgn-61" vertex="1">
          <mxGeometry y="70" width="190" height="8" as="geometry" />
        </mxCell>
        <mxCell id="hCul0chsBix3moK8bQgn-64" value="+add_record(str): None&#xa;+del_record(str): None&#xa;+get_all_records(): list[_Record]&#xa;+show(str): str&#xa;+save_records_to_file(str): None&#xa;+load_records_from_file(str): None&#xa;" style="text;strokeColor=none;fillColor=none;align=left;verticalAlign=top;spacingLeft=4;spacingRight=4;overflow=hidden;rotatable=0;points=[[0,0.5],[1,0.5]];portConstraint=eastwest;fontSize=11;" parent="hCul0chsBix3moK8bQgn-61" vertex="1">
          <mxGeometry y="78" width="190" height="102" as="geometry" />
        </mxCell>
        <mxCell id="hCul0chsBix3moK8bQgn-65" value="" style="endArrow=diamondThin;endFill=0;endSize=24;html=1;rounded=0;fontSize=11;startArrow=open;startFill=0;exitX=1;exitY=0.624;exitDx=0;exitDy=0;exitPerimeter=0;entryX=0.008;entryY=0.45;entryDx=0;entryDy=0;entryPerimeter=0;" parent="1" target="hCul0chsBix3moK8bQgn-63" edge="1" source="hCul0chsBix3moK8bQgn-53">
          <mxGeometry width="160" relative="1" as="geometry">
            <mxPoint x="170" y="390" as="sourcePoint" />
            <mxPoint x="290" y="340" as="targetPoint" />
          </mxGeometry>
        </mxCell>
        <mxCell id="hCul0chsBix3moK8bQgn-69" value="Commands" style="swimlane;fontStyle=1;align=center;verticalAlign=top;childLayout=stackLayout;horizontal=1;startSize=26;horizontalStack=0;resizeParent=1;resizeParentMax=0;resizeLast=0;collapsible=1;marginBottom=0;fontSize=11;" parent="1" vertex="1">
          <mxGeometry x="720" y="152" width="250" height="186" as="geometry" />
        </mxCell>
        <mxCell id="hCul0chsBix3moK8bQgn-70" value="+ function : dict" style="text;strokeColor=none;fillColor=none;align=left;verticalAlign=top;spacingLeft=4;spacingRight=4;overflow=hidden;rotatable=0;points=[[0,0.5],[1,0.5]];portConstraint=eastwest;fontSize=11;" parent="hCul0chsBix3moK8bQgn-69" vertex="1">
          <mxGeometry y="26" width="250" height="20" as="geometry" />
        </mxCell>
        <mxCell id="hCul0chsBix3moK8bQgn-71" value="" style="line;strokeWidth=1;fillColor=none;align=left;verticalAlign=middle;spacingTop=-1;spacingLeft=3;spacingRight=3;rotatable=0;labelPosition=right;points=[];portConstraint=eastwest;strokeColor=inherit;fontSize=11;" parent="hCul0chsBix3moK8bQgn-69" vertex="1">
          <mxGeometry y="46" width="250" height="8" as="geometry" />
        </mxCell>
        <mxCell id="hCul0chsBix3moK8bQgn-72" value="+ hello_message(*args): str&#xa;+ help_message(*args): str&#xa;+ add_handler(AddressBook, *args): str&#xa;+ change_handler(AddressBook, *args): str&#xa;+ del_handler(AddressBook, *args): str&#xa;+ show_(AddressBook, *args): str&#xa;+ save_data(AddressBook, *args): str&#xa;+ load_data(AddressBook, *args): str" style="text;strokeColor=none;fillColor=none;align=left;verticalAlign=top;spacingLeft=4;spacingRight=4;overflow=hidden;rotatable=0;points=[[0,0.5],[1,0.5]];portConstraint=eastwest;fontSize=11;" parent="hCul0chsBix3moK8bQgn-69" vertex="1">
          <mxGeometry y="54" width="250" height="132" as="geometry" />
        </mxCell>
        <mxCell id="hCul0chsBix3moK8bQgn-74" value="Bot" style="swimlane;fontStyle=1;align=center;verticalAlign=top;childLayout=stackLayout;horizontal=1;startSize=26;horizontalStack=0;resizeParent=1;resizeParentMax=0;resizeLast=0;collapsible=1;marginBottom=0;fontSize=11;" parent="1" vertex="1">
          <mxGeometry x="850" y="360" width="180" height="110" as="geometry" />
        </mxCell>
        <mxCell id="hCul0chsBix3moK8bQgn-75" value="+ is_working: bool&#xa;+ command: Commands&#xa;+ interface: CommandLineInterface" style="text;strokeColor=none;fillColor=none;align=left;verticalAlign=top;spacingLeft=4;spacingRight=4;overflow=hidden;rotatable=0;points=[[0,0.5],[1,0.5]];portConstraint=eastwest;fontSize=11;" parent="hCul0chsBix3moK8bQgn-74" vertex="1">
          <mxGeometry y="26" width="180" height="44" as="geometry" />
        </mxCell>
        <mxCell id="hCul0chsBix3moK8bQgn-76" value="" style="line;strokeWidth=1;fillColor=none;align=left;verticalAlign=middle;spacingTop=-1;spacingLeft=3;spacingRight=3;rotatable=0;labelPosition=right;points=[];portConstraint=eastwest;strokeColor=inherit;fontSize=11;" parent="hCul0chsBix3moK8bQgn-74" vertex="1">
          <mxGeometry y="70" width="180" height="8" as="geometry" />
        </mxCell>
        <mxCell id="hCul0chsBix3moK8bQgn-77" value="+ addressbook_polling(): None" style="text;strokeColor=none;fillColor=none;align=left;verticalAlign=top;spacingLeft=4;spacingRight=4;overflow=hidden;rotatable=0;points=[[0,0.5],[1,0.5]];portConstraint=eastwest;fontSize=11;" parent="hCul0chsBix3moK8bQgn-74" vertex="1">
          <mxGeometry y="78" width="180" height="32" as="geometry" />
        </mxCell>
        <mxCell id="hCul0chsBix3moK8bQgn-78" value="" style="endArrow=open;endFill=1;endSize=12;html=1;rounded=0;fontSize=11;exitX=0;exitY=0;exitDx=0;exitDy=0;entryX=0.488;entryY=0.993;entryDx=0;entryDy=0;entryPerimeter=0;" parent="1" source="hCul0chsBix3moK8bQgn-74" edge="1" target="hCul0chsBix3moK8bQgn-72">
          <mxGeometry width="160" relative="1" as="geometry">
            <mxPoint x="890" y="370" as="sourcePoint" />
            <mxPoint x="850" y="367" as="targetPoint" />
          </mxGeometry>
        </mxCell>
        <mxCell id="hCul0chsBix3moK8bQgn-79" value="" style="endArrow=open;endFill=1;endSize=12;html=1;rounded=0;fontSize=11;exitX=1;exitY=0;exitDx=0;exitDy=0;entryX=0.482;entryY=1;entryDx=0;entryDy=0;entryPerimeter=0;" parent="1" source="hCul0chsBix3moK8bQgn-74" target="hCul0chsBix3moK8bQgn-4" edge="1">
          <mxGeometry width="160" relative="1" as="geometry">
            <mxPoint x="640" y="470" as="sourcePoint" />
            <mxPoint x="800" y="470" as="targetPoint" />
          </mxGeometry>
        </mxCell>
        <mxCell id="hCul0chsBix3moK8bQgn-92" value="" style="endArrow=open;endFill=1;endSize=12;html=1;rounded=0;fontSize=11;exitX=0.5;exitY=0;exitDx=0;exitDy=0;entryX=0.5;entryY=1;entryDx=0;entryDy=0;" parent="1" source="hCul0chsBix3moK8bQgn-51" target="hCul0chsBix3moK8bQgn-36" edge="1">
          <mxGeometry width="160" relative="1" as="geometry">
            <mxPoint x="120" y="300" as="sourcePoint" />
            <mxPoint x="94" y="230" as="targetPoint" />
          </mxGeometry>
        </mxCell>
        <mxCell id="fwqpt9rey3RGfwG-rb7J-1" value="_Email" style="swimlane;fontStyle=1;align=center;verticalAlign=top;childLayout=stackLayout;horizontal=1;startSize=26;horizontalStack=0;resizeParent=1;resizeParentMax=0;resizeLast=0;collapsible=1;marginBottom=0;fontSize=11;" vertex="1" parent="1">
          <mxGeometry x="190" y="152" width="160" height="80" as="geometry" />
        </mxCell>
        <object label="«get/set» - _value&#xa;+value" is_singlton="bool" id="fwqpt9rey3RGfwG-rb7J-2">
          <mxCell style="text;strokeColor=none;fillColor=none;align=left;verticalAlign=top;spacingLeft=4;spacingRight=4;overflow=hidden;rotatable=0;points=[[0,0.5],[1,0.5]];portConstraint=eastwest;fontSize=11;" vertex="1" parent="fwqpt9rey3RGfwG-rb7J-1">
            <mxGeometry y="26" width="160" height="34" as="geometry" />
          </mxCell>
        </object>
        <mxCell id="fwqpt9rey3RGfwG-rb7J-3" value="" style="line;strokeWidth=1;fillColor=none;align=left;verticalAlign=middle;spacingTop=-1;spacingLeft=3;spacingRight=3;rotatable=0;labelPosition=right;points=[];portConstraint=eastwest;strokeColor=inherit;fontSize=11;" vertex="1" parent="fwqpt9rey3RGfwG-rb7J-1">
          <mxGeometry y="60" width="160" height="20" as="geometry" />
        </mxCell>
        <mxCell id="fwqpt9rey3RGfwG-rb7J-4" value="" style="endArrow=block;endFill=0;endSize=12;html=1;rounded=0;fontSize=11;entryX=0.25;entryY=1;entryDx=0;entryDy=0;exitX=0.5;exitY=0;exitDx=0;exitDy=0;" edge="1" parent="1" source="fwqpt9rey3RGfwG-rb7J-1" target="hCul0chsBix3moK8bQgn-32">
          <mxGeometry width="160" relative="1" as="geometry">
            <mxPoint x="270" y="150" as="sourcePoint" />
            <mxPoint x="230" y="90" as="targetPoint" />
            <Array as="points" />
          </mxGeometry>
        </mxCell>
        <mxCell id="fwqpt9rey3RGfwG-rb7J-6" value="" style="endArrow=block;endFill=0;endSize=12;html=1;rounded=0;fontSize=11;entryX=0;entryY=1;entryDx=0;entryDy=0;exitX=1;exitY=0;exitDx=0;exitDy=0;" edge="1" parent="1" source="hCul0chsBix3moK8bQgn-36" target="hCul0chsBix3moK8bQgn-32">
          <mxGeometry width="160" relative="1" as="geometry">
            <mxPoint x="180" y="140" as="sourcePoint" />
            <mxPoint x="130" y="90" as="targetPoint" />
            <Array as="points" />
          </mxGeometry>
        </mxCell>
        <mxCell id="fwqpt9rey3RGfwG-rb7J-10" value="Session" style="swimlane;fontStyle=1;align=center;verticalAlign=top;childLayout=stackLayout;horizontal=1;startSize=26;horizontalStack=0;resizeParent=1;resizeParentMax=0;resizeLast=0;collapsible=1;marginBottom=0;fontSize=11;" vertex="1" parent="1">
          <mxGeometry x="550" y="450" width="190" height="78" as="geometry" />
        </mxCell>
        <mxCell id="fwqpt9rey3RGfwG-rb7J-11" value="bot: Bot&#xa;my_address_book: AddressBook" style="text;strokeColor=none;fillColor=none;align=left;verticalAlign=top;spacingLeft=4;spacingRight=4;overflow=hidden;rotatable=0;points=[[0,0.5],[1,0.5]];portConstraint=eastwest;fontSize=11;" vertex="1" parent="fwqpt9rey3RGfwG-rb7J-10">
          <mxGeometry y="26" width="190" height="44" as="geometry" />
        </mxCell>
        <mxCell id="fwqpt9rey3RGfwG-rb7J-12" value="" style="line;strokeWidth=1;fillColor=none;align=left;verticalAlign=middle;spacingTop=-1;spacingLeft=3;spacingRight=3;rotatable=0;labelPosition=right;points=[];portConstraint=eastwest;strokeColor=inherit;fontSize=11;" vertex="1" parent="fwqpt9rey3RGfwG-rb7J-10">
          <mxGeometry y="70" width="190" height="8" as="geometry" />
        </mxCell>
        <mxCell id="fwqpt9rey3RGfwG-rb7J-14" value="" style="endArrow=open;endFill=1;endSize=12;html=1;rounded=0;fontSize=11;exitX=1;exitY=0.5;exitDx=0;exitDy=0;entryX=0;entryY=0.5;entryDx=0;entryDy=0;" edge="1" parent="1" source="fwqpt9rey3RGfwG-rb7J-11" target="hCul0chsBix3moK8bQgn-75">
          <mxGeometry width="160" relative="1" as="geometry">
            <mxPoint x="788" y="425" as="sourcePoint" />
            <mxPoint x="780" y="402" as="targetPoint" />
          </mxGeometry>
        </mxCell>
        <mxCell id="fwqpt9rey3RGfwG-rb7J-15" value="" style="endArrow=open;endFill=1;endSize=12;html=1;rounded=0;fontSize=11;exitX=0;exitY=0.5;exitDx=0;exitDy=0;entryX=1;entryY=0.5;entryDx=0;entryDy=0;" edge="1" parent="1" source="fwqpt9rey3RGfwG-rb7J-11" target="hCul0chsBix3moK8bQgn-64">
          <mxGeometry width="160" relative="1" as="geometry">
            <mxPoint x="498" y="414" as="sourcePoint" />
            <mxPoint x="490" y="391" as="targetPoint" />
          </mxGeometry>
        </mxCell>
      </root>
    </mxGraphModel>
  </diagram>
</mxfile>